<svg width="39" height="39" viewBox="0 0 39 39" fill="none" xmlns="http://www.w3.org/2000/svg">
<path d="M38.5936 14.8063V20.7377H35.6176C35.2262 22.7015 34.4535 24.5277 33.3801 26.1362L35.4855 28.2416L31.2912 32.4357L29.1859 30.3304C27.5775 31.4039 25.7511 32.1762 23.7873 32.5678V35.5439H17.8559V32.5678C16.134 32.2246 14.518 31.5883 13.0618 30.7132C13.4215 30.2498 13.4625 29.6178 13.1846 29.1159L13.8622 28.4383C15.9266 29.7881 18.3342 30.5065 20.8216 30.5065C27.8543 30.5065 33.5561 24.8046 33.5561 17.772C33.5561 10.7394 27.8542 5.03742 20.8216 5.03742C13.789 5.03742 8.08709 10.7393 8.08709 17.772C8.08709 20.2595 8.80553 22.6671 10.1554 24.7316L9.47787 25.4091C8.97607 25.1312 8.34404 25.1721 7.88053 25.532C7.00529 24.0756 6.36928 22.4595 6.02584 20.7377H3.04975V14.8063H6.02584C6.41732 12.8424 7.1899 11.0163 8.26326 9.40773L6.15787 7.30234L10.3521 3.10828L12.4573 5.21352C14.0657 4.14 15.8921 3.36758 17.8559 2.97594V0H23.7873V2.97594C25.7512 3.36734 27.5774 4.14 29.186 5.21344L31.2912 3.10812L35.4854 7.30234L33.3801 9.40758C34.4537 11.016 35.226 12.8425 35.6176 14.8063H38.5936ZM0.707402 34.4566C-0.235801 35.3998 -0.235801 36.9431 0.707402 37.8862C1.65068 38.8295 3.19389 38.8295 4.13709 37.8862L9.55139 32.472L6.1217 29.0423L0.707402 34.4566ZM12.0565 29.6759C12.1365 29.756 12.1365 29.8868 12.0565 29.9669L10.4352 31.5882L7.00553 28.1584L8.62686 26.5371C8.70693 26.457 8.83779 26.457 8.91787 26.5371L9.51779 27.137L11.7893 24.8655C10.2534 22.9125 9.33725 20.4492 9.33725 17.7719C9.33725 11.4291 14.479 6.28734 20.8219 6.28734C27.1646 6.28734 32.3064 11.4292 32.3064 17.7719C32.3064 24.1147 27.1646 29.2564 20.8219 29.2564C18.1446 29.2564 15.6814 28.3403 13.7284 26.8045L11.4569 29.0761L12.0565 29.6759ZM12.3567 17.772C12.3567 22.447 16.1465 26.2369 20.8215 26.2369C25.4965 26.2369 29.2865 22.447 29.2865 17.772C29.2865 13.097 25.4966 9.30711 20.8215 9.30711C16.1466 9.30703 12.3567 13.0969 12.3567 17.772ZM18.6187 21.2678C19.1819 21.8159 20.083 21.8098 20.6385 21.2511L25.5255 16.3182C26.0849 15.7558 26.0823 14.8463 25.5199 14.287C24.9575 13.7276 24.048 13.7302 23.4887 14.2926L19.6026 18.2152L18.1377 16.7873C17.569 16.2341 16.6597 16.2467 16.1065 16.8154C15.5533 17.3841 15.5659 18.2935 16.1346 18.8466L18.6187 21.2678Z" fill="#E92929"/>
</svg>
