<svg width="40" height="40" viewBox="0 0 40 40" fill="none" xmlns="http://www.w3.org/2000/svg">
<path d="M24.3125 27.4687C24.3125 27.3299 24.2638 27.1909 24.1667 27.0521C23.3888 26.1212 22.764 25.3226 22.2915 24.6564C22.5832 24.087 22.8055 23.5591 22.9578 23.0735L26.1871 22.5735C26.3125 22.5593 26.4236 22.4866 26.5207 22.355C26.6179 22.2225 26.666 22.0873 26.666 21.9485V18.0941C26.666 17.9415 26.6179 17.8059 26.5207 17.6881C26.4236 17.5702 26.3055 17.497 26.1666 17.4697L22.9997 16.9905C22.8466 16.5181 22.6107 15.9484 22.2913 15.282C22.4994 14.9763 22.8123 14.5595 23.229 14.032C23.6456 13.5041 23.9377 13.1293 24.104 12.907C24.2014 12.7682 24.2498 12.6361 24.2498 12.5112C24.2498 12.1362 23.2497 11.0251 21.2503 9.17775C21.1115 9.06683 20.9656 9.0113 20.8123 9.0113C20.646 9.0113 20.5071 9.05939 20.3955 9.15702L17.9371 11.0112C17.3678 10.7196 16.847 10.5044 16.3747 10.3651L15.8955 7.17779C15.8819 7.03893 15.8123 6.91722 15.6873 6.81316C15.5623 6.70903 15.4234 6.65686 15.2705 6.65686H11.3958C11.0764 6.65686 10.868 6.82352 10.7709 7.15678C10.604 7.79577 10.4445 8.86544 10.2917 10.3651C9.69455 10.5595 9.15983 10.7818 8.68764 11.0318L6.29189 9.15695C6.15303 9.05954 6.00724 9.01123 5.85437 9.01123C5.59014 9.01123 5.04163 9.42088 4.20839 10.2405C3.375 11.0598 2.80525 11.6778 2.49995 12.0946C2.4026 12.2058 2.35422 12.3447 2.35422 12.5114C2.35422 12.6362 2.40253 12.7751 2.49995 12.9279C3.27758 13.8587 3.9025 14.6573 4.37483 15.3236C4.08324 15.8934 3.86112 16.4209 3.70847 16.9069L0.479193 17.4066C0.354049 17.4205 0.243062 17.4933 0.145721 17.625C0.0485979 17.7572 0 17.8925 0 18.0312V21.8854C0 22.0383 0.0485979 22.1736 0.145721 22.2914C0.243062 22.4098 0.360982 22.4757 0.500135 22.4895L3.66673 22.9895C3.8334 23.517 4.07668 24.0867 4.39607 24.6978C4.1738 25.0036 3.84755 25.4274 3.41696 25.9688C2.98607 26.5107 2.70149 26.8788 2.5627 27.073C2.4655 27.2119 2.41683 27.3442 2.41683 27.4686C2.41683 27.8442 3.41696 28.9549 5.41691 30.8023C5.55577 30.9132 5.70142 30.9684 5.85444 30.9684C6.03497 30.9684 6.17383 30.9202 6.27095 30.8228L8.72923 28.9689C9.29847 29.2606 9.81933 29.4755 10.2917 29.6145L10.7709 32.8021C10.7846 32.9409 10.8543 33.0627 10.9791 33.1666C11.1041 33.2708 11.243 33.3227 11.3958 33.3227H15.2705C15.5901 33.3227 15.7983 33.1562 15.8956 32.8228C16.0623 32.1698 16.2218 31.0936 16.3748 29.5935C16.9302 29.4275 17.4648 29.2115 17.9788 28.948L20.3746 30.8228C20.5135 30.9202 20.6593 30.9684 20.8122 30.9684C21.0761 30.9684 21.6215 30.5553 22.4478 29.7285C23.2738 28.9027 23.847 28.2807 24.1666 27.8641C24.2638 27.7672 24.3125 27.6355 24.3125 27.4687ZM17.1039 23.7609C16.0625 24.8022 14.8054 25.323 13.3333 25.323C11.8609 25.323 10.6038 24.8021 9.5624 23.7609C8.52083 22.7191 7.99997 21.462 7.99997 19.9898C7.99997 18.5177 8.52083 17.2607 9.5624 16.2191C10.6038 15.1775 11.8609 14.6568 13.3333 14.6568C14.8054 14.6568 16.0625 15.1774 17.1039 16.2191C18.1457 17.2607 18.6664 18.5177 18.6664 19.9898C18.6664 21.462 18.1458 22.7191 17.1039 23.7609Z" fill="#E92929"/>
<path d="M36.8957 28.5525C36.7154 28.1499 36.5068 27.7888 36.2709 27.4691C36.9794 25.8994 37.3332 24.941 37.3332 24.594C37.3332 24.539 37.306 24.4901 37.25 24.4484C35.583 23.4763 34.7221 22.9901 34.6665 22.9901L34.5417 23.032C33.9723 23.6017 33.3331 24.3792 32.6251 25.3654C32.3474 25.3377 32.1394 25.3235 32.0005 25.3235C31.8612 25.3235 31.6532 25.3377 31.3752 25.3654C31.1815 25.0735 30.8199 24.6045 30.2922 23.959C29.7646 23.3135 29.445 22.9902 29.3338 22.9902C29.3061 22.9902 29.0978 23.1012 28.7088 23.324C28.32 23.5463 27.9103 23.782 27.4797 24.0325C27.0487 24.283 26.8062 24.4213 26.7505 24.4492C26.6946 24.4907 26.6671 24.5396 26.6671 24.5946C26.6671 24.9422 27.0212 25.8999 27.7294 27.4697C27.4937 27.7894 27.2851 28.1505 27.1047 28.5527C25.035 28.7608 24.0002 28.9763 24.0002 29.1985V32.115C24.0002 32.3373 25.035 32.5525 27.1047 32.7608C27.271 33.1359 27.4795 33.497 27.7294 33.8436C27.0212 35.4133 26.6671 36.3717 26.6671 36.7187C26.6671 36.7742 26.6946 36.8231 26.7505 36.8646C28.4446 37.8507 29.3061 38.3437 29.3338 38.3437C29.4449 38.3437 29.7646 38.0173 30.2922 37.3645C30.8199 36.7116 31.181 36.2398 31.3752 35.9482C31.653 35.9754 31.8612 35.9893 32.0005 35.9893C32.1393 35.9893 32.3474 35.9754 32.6251 35.9482C32.8191 36.2398 33.1804 36.7116 33.7081 37.3645C34.2357 38.0173 34.5551 38.3437 34.6665 38.3437C34.6943 38.3437 35.5558 37.8505 37.25 36.8646C37.306 36.8231 37.3332 36.7745 37.3332 36.7187C37.3332 36.3716 36.9789 35.4132 36.2709 33.8436C36.5209 33.497 36.7291 33.1359 36.8957 32.7608C38.9653 32.5525 40.0001 32.3373 40.0001 32.115V29.1985C40.0001 28.9763 38.9653 28.7607 36.8957 28.5525ZM33.8851 32.5419C33.365 33.0628 32.7362 33.3237 32 33.3237C31.2636 33.3237 30.6351 33.0628 30.1147 32.5419C29.5937 32.0209 29.333 31.3927 29.333 30.6565C29.333 29.9346 29.5972 29.3091 30.1251 28.7817C30.6527 28.2541 31.2778 27.9901 31.9999 27.9901C32.7219 27.9901 33.3474 28.2538 33.8752 28.7817C34.4027 29.3092 34.6669 29.9346 34.6669 30.6565C34.6665 31.3927 34.4062 32.0209 33.8851 32.5419Z" fill="#E92929"/>
<path d="M36.8957 7.21903C36.7154 6.81624 36.5068 6.45518 36.2709 6.1355C36.9794 4.56629 37.3332 3.6079 37.3332 3.26071C37.3332 3.2054 37.306 3.15658 37.25 3.11484C35.583 2.14267 34.7221 1.65662 34.6665 1.65662L34.5417 1.69821C33.9723 2.26796 33.3331 3.04552 32.6251 4.03156C32.3474 4.00398 32.1394 3.98997 32.0005 3.98997C31.8612 3.98997 31.6532 4.00398 31.3752 4.03156C31.1815 3.7399 30.8199 3.27122 30.2922 2.62544C29.7646 1.97951 29.445 1.65669 29.3338 1.65669C29.3061 1.65669 29.0978 1.76768 28.7088 1.99009C28.32 2.21257 27.9103 2.44856 27.4797 2.69862C27.0487 2.94877 26.8062 3.08755 26.7505 3.11514C26.6946 3.1568 26.6671 3.2054 26.6671 3.261C26.6671 3.60819 27.0212 4.56665 27.7294 6.13594C27.4937 6.45555 27.2851 6.81653 27.1047 7.21932C25.035 7.42751 24.0002 7.64269 24.0002 7.86496V10.7816C24.0002 11.0038 25.035 11.2192 27.1047 11.4273C27.271 11.8021 27.4795 12.1634 27.7294 12.5107C27.0212 14.0802 26.6671 15.0383 26.6671 15.3856C26.6671 15.4408 26.6946 15.4896 26.7505 15.5313C28.4446 16.5174 29.3061 17.0104 29.3338 17.0104C29.4449 17.0104 29.7646 16.6842 30.2922 16.0313C30.8199 15.3784 31.181 14.9065 31.3752 14.6147C31.653 14.6423 31.8612 14.6563 32.0005 14.6563C32.1393 14.6563 32.3474 14.6423 32.6251 14.6147C32.8191 14.9065 33.1804 15.3784 33.7081 16.0313C34.2357 16.6842 34.5551 17.0104 34.6665 17.0104C34.6943 17.0104 35.5558 16.5174 37.25 15.5313C37.306 15.4896 37.3332 15.4411 37.3332 15.3856C37.3332 15.0383 36.9789 14.0802 36.2709 12.5107C36.5209 12.1634 36.7291 11.8023 36.8957 11.4273C38.9653 11.2191 40.0001 11.0038 40.0001 10.7816V7.86496C40.0001 7.64269 38.9653 7.42743 36.8957 7.21903ZM33.8851 11.2086C33.365 11.7295 32.7362 11.9899 32 11.9899C31.2636 11.9899 30.6351 11.7295 30.1147 11.2086C29.5937 10.6879 29.333 10.0594 29.333 9.32326C29.333 8.60108 29.5972 7.97595 30.1251 7.44816C30.6527 6.92037 31.2778 6.65643 31.9999 6.65643C32.7219 6.65643 33.3474 6.92066 33.8752 7.44816C34.4027 7.97587 34.6669 8.60108 34.6669 9.32326C34.6665 10.0594 34.4062 10.6879 33.8851 11.2086Z" fill="#E92929"/>
</svg>
