<svg width="40" height="40" viewBox="0 0 40 40" fill="none" xmlns="http://www.w3.org/2000/svg">
<g clip-path="url(#clip0_11_2816)">
<path d="M39.7009 4.998C39.5557 4.51667 38.9488 4.36526 38.5948 4.71933L36.283 7.0312H32.9688V3.71698L35.2809 1.40401C35.6365 1.04808 35.4821 0.443311 35.0046 0.298076C34.3502 0.099248 33.6711 0.0144043 32.9756 0.0144043C31.0907 0.0144043 29.3238 0.730029 27.9974 2.05987C26.3723 3.68378 25.6445 6.00581 26.0473 8.27284L26.1549 8.87362L8.8736 26.1548C8.17556 26.03 7.75517 25.9385 7.04024 25.9385C5.18399 25.9385 3.36782 26.6892 2.0586 27.9973C0.210947 29.8462 -0.440225 32.5534 0.297744 35.0019C0.443212 35.4842 1.04899 35.6353 1.40384 35.2806L3.71587 32.9687H7.04688V36.2841L4.71876 38.5965C4.36321 38.9517 4.51657 39.5575 4.99556 39.7028C5.64845 39.9003 6.32649 40 7.02087 40C11.3976 40 14.7209 36.0513 13.9526 31.727L13.845 31.1262L31.1251 13.845C31.8115 13.9677 32.2497 14.0621 32.9584 14.0602C34.8181 14.0602 36.6331 13.3106 37.9401 12.0025C39.789 10.1546 40.4393 7.44808 39.7009 4.998Z" fill="#E92929"/>
<path d="M38.2868 29.9971L30.068 21.8595C29.5197 21.3121 28.8381 20.8836 28.0914 20.5847L20.5068 28.1693C20.8057 28.9162 21.2346 29.5984 21.7825 30.1473L30.0002 38.2839C32.2844 40.5681 35.9921 40.5762 38.2868 38.2839C40.5711 35.9985 40.5711 32.2814 38.2868 29.9971ZM34.9464 34.9433C34.4886 35.4011 33.7471 35.4011 33.2893 34.9433L27.5309 29.2661C27.0732 28.8084 27.0732 28.0667 27.5309 27.609C27.9886 27.1513 28.7303 27.1513 29.188 27.609L34.9464 33.2862C35.4041 33.7439 35.4041 34.4855 34.9464 34.9433Z" fill="#E92929"/>
<path d="M10.0221 6.70776L10.0204 6.7083L11.0772 5.65143C11.3836 5.34479 11.3192 4.83346 10.949 4.61143L3.79481 0.167132C3.3338 -0.109508 2.74356 -0.0368521 2.36348 0.343382L0.343485 2.36338C-0.0369059 2.74377 -0.109406 3.33424 0.167547 3.79534L4.61489 10.9461C4.8377 11.3167 5.35036 11.3785 5.65473 11.0739L6.70731 10.0214L14.2004 17.5145L17.5146 14.2003L10.0221 6.70776Z" fill="#E92929"/>
</g>
<defs>
<clipPath id="clip0_11_2816">
<rect width="40" height="40" fill="white"/>
</clipPath>
</defs>
</svg>
