<svg width="16" height="16" viewBox="0 0 16 16" fill="none" xmlns="http://www.w3.org/2000/svg">
<g clip-path="url(#clip0_12_40)">
<path d="M7.38133 9.34752L8.37535 10.3415C8.49205 10.4582 8.62645 10.5448 8.76768 10.6118L10.6336 8.74583C10.5666 8.60448 10.4801 8.4702 10.3634 8.3535L9.36937 7.35948L8.70665 8.02208L3.59399 2.93127L4.31652 2.20874L1.22375 0L0 1.22375L2.20874 4.31652L2.93127 3.59399L8.04393 8.6848L7.38133 9.34752Z" fill="white"/>
<path d="M6.36803 11.6201L7.38134 10.6728L6.0559 9.34753L6.71862 8.68481L6.0559 8.02209L4.38 9.63208C3.19763 9.21142 1.85925 9.50195 0.959105 10.4022C-0.319702 11.6809 -0.319702 13.7622 0.959105 15.041C2.23791 16.3197 4.31921 16.3197 5.59789 15.041C6.49804 14.1407 6.78868 12.8024 6.36803 11.6201ZM2.28442 13.7156C1.73633 13.1673 1.73633 12.2756 2.28442 11.7274C2.83251 11.1793 3.72436 11.1793 4.27245 11.7274C4.82067 12.2756 4.82067 13.1673 4.27245 13.7156C3.72436 14.2637 2.83264 14.2637 2.28442 13.7156Z" fill="white"/>
<path d="M3.60983 12.3901C3.42697 12.2074 3.12997 12.2074 2.94711 12.3901C2.76437 12.573 2.76437 12.87 2.94711 13.0528C3.12997 13.2357 3.42697 13.2357 3.60983 13.0528C3.79257 12.87 3.79257 12.573 3.60983 12.3901Z" fill="white"/>
<path d="M15.3093 12.0013L12.02 8.68481L10.6946 10.0101L13.6526 12.9954L12.9899 13.6581L10.032 10.6728L8.70654 11.9982L11.9958 15.3148C12.9093 16.2283 14.3959 16.2283 15.3093 15.3148C16.2228 14.4014 16.2228 12.9148 15.3093 12.0013Z" fill="white"/>
<path d="M9.62622 4.38559L8.04395 6.03402L8.70666 6.69674L9.36938 6.03402L10.6947 7.35934L11.6143 6.37374C12.7966 6.7944 14.135 6.50375 15.0351 5.6036C16.0152 4.6235 16.2728 3.12338 15.6759 1.87082L15.6044 1.72092L13.7098 3.61557H12.3844V2.29013L14.279 0.395603L14.1291 0.324192C12.8766 -0.272853 11.3765 -0.0152852 10.3964 0.964816C9.49621 1.86496 9.20556 3.20334 9.62622 4.38559Z" fill="white"/>
</g>
<defs>
<clipPath id="clip0_12_40">
<rect width="16" height="16" fill="white"/>
</clipPath>
</defs>
</svg>
