<svg width="40" height="40" viewBox="0 0 40 40" fill="none" xmlns="http://www.w3.org/2000/svg">
<path d="M4.70351 26.0189L0.0442171 30.6782C-0.0341422 30.7529 -0.00484536 30.888 0.104373 30.9204L5.71594 32.625C6.51203 32.8672 7.13234 33.4875 7.37445 34.2835L9.07906 39.8951C9.1114 40.0043 9.24656 40.0336 9.32125 39.9552L15.5555 33.721C10.9429 32.5752 7.13484 29.6996 4.70351 26.0189Z" fill="#E92929"/>
<path d="M39.9557 30.6782L35.2964 26.0189C32.8825 29.6733 29.0862 32.568 24.4443 33.7211L30.6786 39.9553C30.7532 40.0337 30.8884 40.0044 30.9207 39.8952L32.6254 34.2836C32.8675 33.4875 33.4879 32.8672 34.2839 32.6251L39.8955 30.9205C40.005 30.8879 40.0339 30.7527 39.9557 30.6782Z" fill="#E92929"/>
<path d="M35.9582 15.9582C35.9582 7.15922 28.7997 0 20 0C11.2002 0 4.04175 7.15922 4.04175 15.9582C4.04175 23.9141 9.89948 30.545 17.5477 31.7289C27.2357 33.2359 35.9582 25.6952 35.9582 15.9582ZM7.56042 19.8472C4.92862 11.433 11.2641 2.92727 20 2.92727C29.7588 2.92727 36.209 13.4155 31.452 22.1745C25.9603 32.2488 11.0168 30.8413 7.56042 19.8472Z" fill="#E92929"/>
<path d="M20.0001 5.271C14.1072 5.271 9.31201 10.0654 9.31201 15.9583C9.31201 24.6279 19.1415 29.6839 26.1804 24.6729C27.6885 23.6024 28.9166 22.139 29.7069 20.4292C32.9905 13.36 27.7559 5.271 20.0001 5.271ZM25.3944 14.4591C25.261 14.5582 18.7678 19.3775 18.7305 19.4051C18.2615 19.7547 17.5944 19.7078 17.1774 19.2661C14.1948 16.0875 14.4334 16.3413 14.3619 16.2662C13.8607 15.7325 13.9653 14.8693 14.5923 14.4725C14.5931 14.4717 14.5939 14.4709 14.5947 14.4709C15.0603 14.1787 15.6814 14.2467 16.0712 14.6623C16.7019 15.3345 16.2774 14.8821 18.1719 16.9005C18.3762 16.7483 20.7791 14.9656 24.0851 12.5123C24.6046 12.1264 25.339 12.235 25.724 12.7545C26.077 13.2283 26.0758 13.9543 25.3944 14.4591Z" fill="#E92929"/>
</svg>
