<svg width="833" height="829" viewBox="0 0 833 829" fill="none" xmlns="http://www.w3.org/2000/svg">
<path d="M251.996 417.994C251.996 507.796 324.821 580.578 414.631 580.578C504.441 580.578 577.267 507.776 577.267 417.994C577.267 328.212 504.441 255.41 414.631 255.41C324.821 255.41 251.996 328.212 251.996 417.994Z" fill="url(#paint0_radial_11_2959)"/>
<path d="M352.476 417.994C352.476 452.321 380.314 480.13 414.631 480.13C448.949 480.13 476.787 452.301 476.787 417.994C476.787 383.687 448.949 355.858 414.631 355.858C380.314 355.858 352.476 383.687 352.476 417.994Z" fill="url(#paint1_radial_11_2959)"/>
<path d="M322.266 453.609L299.313 472.08L310.125 490.796L337.616 480.151C342.031 485.606 346.998 490.592 352.455 494.985L341.806 522.467L360.529 533.276L379.006 510.33C385.465 512.823 392.25 514.682 399.302 515.786L403.819 544.882H425.444L429.961 515.786C437.012 514.682 443.798 512.843 450.257 510.33L468.734 533.276L487.457 522.467L476.808 494.985C482.265 490.572 487.252 485.606 491.647 480.151L519.137 490.796L529.95 472.08L506.996 453.609C509.49 447.131 511.35 440.348 512.433 433.319L541.539 428.803V407.185L512.433 402.67C511.33 395.641 509.49 388.857 506.996 382.38L529.95 363.909L519.137 345.192L491.647 355.838C487.232 350.382 482.265 345.417 476.808 341.003L487.457 313.521L468.734 302.712L450.257 325.658C443.798 323.166 437.012 321.306 429.961 320.223L425.444 291.106H403.819L399.302 320.223C392.25 321.327 385.485 323.166 379.006 325.658L360.529 302.712L341.806 313.521L352.455 341.003C346.998 345.417 342.011 350.382 337.616 355.838L310.125 345.192L299.313 363.909L322.266 382.38C319.773 388.837 317.913 395.62 316.829 402.67L287.724 407.185V428.803L316.829 433.319C317.933 440.348 319.773 447.131 322.266 453.609ZM353.17 417.994C353.17 384.055 380.682 356.553 414.631 356.553C448.581 356.553 476.092 384.055 476.092 417.994C476.092 451.933 448.581 479.436 414.631 479.436C380.682 479.436 353.17 451.933 353.17 417.994Z" fill="#E0E0E0"/>
<path d="M225.588 490.878L178.599 528.679L200.734 566.99L257.004 545.188C266.038 556.345 276.217 566.54 287.397 575.572L265.588 631.844L303.912 653.952L341.724 606.977C354.949 612.085 368.847 615.886 383.257 618.133L392.496 677.695H436.747L445.985 618.133C460.395 615.886 474.294 612.106 487.518 606.977L525.331 653.952L563.654 631.844L541.845 575.572C553.026 566.54 563.205 556.365 572.239 545.188L628.508 566.99L650.623 528.679L603.633 490.878C608.743 477.637 612.545 463.763 614.773 449.358L674.374 440.123V395.886L614.773 386.65C612.545 372.245 608.743 358.351 603.633 345.131L650.623 307.33L628.488 269.018L572.218 290.82C563.184 279.664 553.005 269.468 541.825 260.437L563.634 204.185L525.31 182.056L487.497 229.052C474.253 223.944 460.375 220.143 445.965 217.916L436.726 158.354H392.475L383.237 217.916C368.827 220.143 354.949 223.944 341.704 229.052L303.891 182.077L265.568 204.185L287.376 260.457C276.196 269.488 266.017 279.664 256.983 290.841L200.714 269.039L178.578 307.35L225.568 345.151C220.458 358.391 216.657 372.265 214.429 386.691L154.848 395.927V440.164L214.429 449.399C216.677 463.804 220.458 477.699 225.568 490.919L225.588 490.878ZM257.004 417.994C257.004 330.971 327.58 260.416 414.631 260.416C501.682 260.416 572.259 330.971 572.259 417.994C572.259 505.017 501.682 575.572 414.631 575.572C327.58 575.572 257.004 505.017 257.004 417.994Z" fill="#E0E0E0"/>
<path d="M133.816 417.994C133.816 263.195 259.804 137.268 414.631 137.268C569.459 137.268 695.447 263.195 695.447 417.994C695.447 572.793 569.479 698.72 414.631 698.72C259.783 698.72 133.816 572.793 133.816 417.994ZM135.594 417.994C135.594 571.812 260.764 696.943 414.631 696.943C568.498 696.943 693.668 571.812 693.668 417.994C693.668 264.176 568.498 139.045 414.631 139.045C260.764 139.045 135.594 264.176 135.594 417.994Z" fill="#E0E0E0"/>
<path d="M414.631 91.8251C348.939 91.8251 287.744 111.338 236.503 144.869V140.598C287.908 107.497 349.062 88.2698 414.631 88.2698C571.666 88.2698 703.397 198.546 736.468 345.682L732.993 346.5C700.291 200.936 569.99 91.8455 414.652 91.8455L414.631 91.8251Z" fill="#E0E0E0"/>
<path d="M138.721 237.532H143.014C108.512 289.247 88.3591 351.302 88.3591 417.994C88.3591 597.844 234.725 744.163 414.631 744.163C594.538 744.163 725.983 612.269 739.759 445.006L743.499 443.372C730.5 613.373 587.956 747.718 414.631 747.718C232.763 747.718 84.7822 599.805 84.7822 417.974C84.7822 351.404 104.629 289.39 138.721 237.511V237.532Z" fill="#E0E0E0"/>
<path d="M650.051 174.966L652.585 172.432C699.596 217.977 733.607 276.844 748.466 342.862L744.991 343.68C730.275 278.315 696.612 220.041 650.071 174.966H650.051Z" fill="#E0E0E0"/>
<path d="M752.533 439.448L756.233 437.834C750.51 537.362 702.008 625.612 628.896 684.478L626.362 681.945C698.431 624.059 746.381 537.321 752.533 439.448Z" fill="#E0E0E0"/>
<path d="M124.107 237.531H128.338C95.2471 289.798 76.0341 351.689 76.0341 417.994C76.0341 509.369 112.457 592.388 171.526 653.339L168.992 655.873C109.268 594.268 72.4573 510.35 72.4573 417.994C72.4573 351.792 91.4045 289.962 124.107 237.531Z" fill="#E0E0E0"/>
<path d="M236.503 110.133C288.93 79.6879 349.777 62.2383 414.631 62.2383C548.795 62.2383 665.85 136.859 726.473 246.747L723.346 248.483C663.336 139.679 547.446 65.7936 414.611 65.7936C349.655 65.7936 288.766 83.468 236.482 114.24V110.112L236.503 110.133Z" fill="#E0E0E0"/>
<path d="M414.631 770.195C521.937 770.195 618.166 721.973 682.835 646.086L685.574 648.374C620.25 725.058 523.021 773.77 414.611 773.77C282.389 773.77 166.784 701.295 105.426 594.023L108.553 592.266C169.299 698.455 283.738 770.195 414.611 770.195H414.631Z" fill="#E0E0E0"/>
<path d="M221.317 194.336C272.701 149.895 339.497 122.801 412.485 122.27V124.047C339.374 124.579 272.537 151.918 221.317 196.706V194.336Z" fill="#E0E0E0"/>
<path d="M189.717 226.232H192.068C163.33 259.497 141.89 299.198 130.321 342.924H128.461C139.927 299.279 161.205 259.578 189.717 226.232Z" fill="#E0E0E0"/>
<path d="M225.18 644.962L226.447 643.695C277.484 686.297 343.114 711.961 414.631 711.961C468.019 711.961 518.136 697.658 561.324 672.689L562.387 674.14C518.892 699.313 468.407 713.739 414.631 713.739C342.624 713.739 276.544 687.871 225.18 644.962Z" fill="#E0E0E0"/>
<path d="M420.886 99.0378H408.377V138.167H420.886V99.0378Z" fill="#E0E0E0"/>
<path d="M436.201 99.6746L432.79 138.655L445.251 139.744L448.663 100.764L436.201 99.6746Z" fill="#E0E0E0"/>
<path d="M463.873 102.788L457.076 141.322L469.395 143.493L476.192 104.959L463.873 102.788Z" fill="#E0E0E0"/>
<path d="M491.143 108.275L481.012 146.07L493.095 149.307L503.226 111.511L491.143 108.275Z" fill="#E0E0E0"/>
<path d="M517.841 116.103L504.454 152.872L516.208 157.148L529.595 120.379L517.841 116.103Z" fill="#E0E0E0"/>
<path d="M543.756 126.214L527.214 161.676L538.551 166.961L555.093 131.498L543.756 126.214Z" fill="#E0E0E0"/>
<path d="M568.808 138.71L549.232 172.593L560.064 178.847L579.64 144.964L568.808 138.71Z" fill="#E0E0E0"/>
<path d="M592.486 153.098L570.036 185.15L580.282 192.323L602.733 160.27L592.486 153.098Z" fill="#E0E0E0"/>
<path d="M614.925 169.6L589.765 199.574L599.347 207.612L624.507 177.637L614.925 169.6Z" fill="#E0E0E0"/>
<path d="M229.894 628.318L204.748 658.277L214.33 666.315L239.476 636.356L229.894 628.318Z" fill="#E0E0E0"/>
<path d="M635.806 187.965L608.129 215.633L616.974 224.476L644.651 196.807L635.806 187.965Z" fill="#E0E0E0"/>
<path d="M212.269 611.457L184.607 639.11L193.452 647.953L221.115 620.299L212.269 611.457Z" fill="#E0E0E0"/>
<path d="M655.015 208.074L625.031 233.226L633.072 242.805L663.055 217.653L655.015 208.074Z" fill="#E0E0E0"/>
<path d="M196.176 593.137L166.192 618.289L174.233 627.868L204.217 602.716L196.176 593.137Z" fill="#E0E0E0"/>
<path d="M672.429 229.936L640.367 252.379L647.541 262.623L679.604 240.179L672.429 229.936Z" fill="#E0E0E0"/>
<path d="M181.741 573.391L149.695 595.822L156.87 606.066L188.915 583.634L181.741 573.391Z" fill="#E0E0E0"/>
<path d="M687.846 253.083L653.949 272.647L660.203 283.477L694.101 263.912L687.846 253.083Z" fill="#E0E0E0"/>
<path d="M169.075 552.533L135.195 572.087L141.45 582.916L175.329 563.362L169.075 552.533Z" fill="#E0E0E0"/>
<path d="M701.167 277.475L665.693 294.011L670.979 305.344L706.454 288.808L701.167 277.475Z" fill="#E0E0E0"/>
<path d="M158.252 530.633L122.797 547.161L128.083 558.494L163.539 541.966L158.252 530.633Z" fill="#E0E0E0"/>
<path d="M712.328 302.986L675.547 316.369L679.826 328.119L716.606 314.737L712.328 302.986Z" fill="#E0E0E0"/>
<path d="M149.469 507.813L112.707 521.189L116.985 532.94L153.747 519.564L149.469 507.813Z" fill="#E0E0E0"/>
<path d="M142.642 484.351L104.854 494.473L108.092 506.552L145.879 496.43L142.642 484.351Z" fill="#E0E0E0"/>
<path d="M137.87 460.411L99.3435 467.202L101.516 479.517L140.042 472.726L137.87 460.411Z" fill="#E0E0E0"/>
<path d="M101.5 356.404L99.3257 368.719L137.851 375.517L140.025 363.202L101.5 356.404Z" fill="#E0E0E0"/>
<path d="M686.687 484.439L683.447 496.517L721.253 506.651L724.493 494.573L686.687 484.439Z" fill="#E0E0E0"/>
<path d="M108.104 329.415L104.864 341.494L142.65 351.622L145.89 339.544L108.104 329.415Z" fill="#E0E0E0"/>
<path d="M679.811 507.822L675.531 519.572L712.309 532.962L716.589 521.212L679.811 507.822Z" fill="#E0E0E0"/>
<path d="M671.033 530.69L665.747 542.023L701.221 558.56L706.507 547.226L671.033 530.69Z" fill="#E0E0E0"/>
<path d="M660.184 552.517L653.928 563.346L687.822 582.916L694.078 572.088L660.184 552.517Z" fill="#E0E0E0"/>
<path d="M647.544 573.426L640.367 583.668L672.426 606.117L679.602 595.875L647.544 573.426Z" fill="#E0E0E0"/>
<path d="M633.081 592.993L625.04 602.572L655.024 627.724L663.065 618.145L633.081 592.993Z" fill="#E0E0E0"/>
<path d="M616.991 611.537L608.144 620.377L635.816 648.051L644.663 639.21L616.991 611.537Z" fill="#E0E0E0"/>
<path d="M599.365 628.359L589.781 636.396L614.936 666.374L624.519 658.338L599.365 628.359Z" fill="#E0E0E0"/>
<path d="M580.331 643.607L570.083 650.777L592.528 682.834L602.776 675.663L580.331 643.607Z" fill="#E0E0E0"/>
<path d="M560.009 657.173L549.176 663.426L568.746 697.312L579.579 691.06L560.009 657.173Z" fill="#E0E0E0"/>
<path d="M64.67 193.049L42.5342 210.846L52.9583 228.888L79.468 218.611C83.7194 223.862 88.5226 228.664 93.7755 232.914L83.4945 259.415L101.542 269.836L119.345 247.707C125.579 250.118 132.12 251.896 138.905 252.958L143.259 281.012H164.107L168.461 252.958C175.246 251.896 181.787 250.118 188.021 247.707L205.824 269.836L223.872 259.415L213.591 232.914C218.843 228.664 223.647 223.862 227.898 218.611L254.408 228.888L264.832 210.846L242.696 193.049C245.108 186.817 246.886 180.279 247.949 173.495L276.012 169.143V148.301L247.949 143.949C246.886 137.165 245.108 130.627 242.696 124.395L264.832 106.598L254.408 88.5558L227.898 98.8335C223.647 93.5618 218.843 88.7805 213.591 84.5305L223.851 58.0291L205.803 47.6084L188.001 69.7371C181.767 67.326 175.226 65.5484 168.44 64.4859L164.087 36.4316H143.239L138.885 64.4859C132.099 65.5484 125.559 67.326 119.325 69.7371L101.522 47.6084L83.4741 58.0291L93.7551 84.5305C88.4817 88.7805 83.6989 93.5822 79.4476 98.8335L52.9378 88.5558L42.5138 106.598L64.6495 124.395C62.2377 130.627 60.4595 137.165 59.3966 143.949L31.3335 148.301V169.143L59.3966 173.495C60.4595 180.279 62.2377 186.817 64.6495 193.049H64.67ZM79.468 158.702C79.468 117.713 112.702 84.4692 153.724 84.4692C194.746 84.4692 227.98 117.693 227.98 158.702C227.98 199.71 194.746 232.934 153.724 232.934C112.702 232.934 79.468 199.71 79.468 158.702Z" fill="#C7C7C7"/>
<path d="M721.589 407.45L707.159 419.056L713.944 430.805L731.215 424.124C733.995 427.556 737.122 430.683 740.536 433.441L733.852 450.707L745.605 457.49L757.214 443.085C761.282 444.659 765.533 445.823 769.968 446.498L772.809 464.785H786.381L789.222 446.498C793.637 445.803 797.909 444.638 801.976 443.085L813.586 457.49L825.338 450.707L818.655 433.441C822.089 430.683 825.216 427.556 827.975 424.124L845.246 430.805L852.032 419.056L837.602 407.45C839.176 403.384 840.341 399.134 841.015 394.7L859.309 391.86V378.293L841.015 375.453C840.32 371.039 839.155 366.769 837.602 362.703L852.032 351.097L845.246 339.327L827.975 346.009C825.195 342.576 822.068 339.45 818.655 336.692L825.338 319.426L813.586 312.642L801.976 327.068C797.909 325.494 793.657 324.33 789.222 323.656L786.381 305.368H772.809L769.968 323.656C765.554 324.33 761.282 325.515 757.214 327.068L745.605 312.642L733.852 319.426L740.536 336.692C737.102 339.471 733.975 342.597 731.215 346.009L713.944 339.327L707.159 351.076L721.589 362.682C720.015 366.748 718.85 370.998 718.175 375.432L699.882 378.272V391.84L718.175 394.68C718.87 399.093 720.035 403.364 721.589 407.43V407.45ZM731.215 385.097C731.215 358.391 752.881 336.733 779.595 336.733C806.309 336.733 827.975 358.391 827.975 385.097C827.975 411.803 806.33 433.461 779.595 433.461C752.861 433.461 731.215 411.803 731.215 385.097Z" fill="url(#paint2_linear_11_2959)"/>
<path d="M750.204 385.097C750.204 401.341 763.367 414.479 779.595 414.479C795.824 414.479 808.987 401.32 808.987 385.097C808.987 368.873 795.824 355.714 779.595 355.714C763.367 355.714 750.204 368.873 750.204 385.097Z" fill="url(#paint3_linear_11_2959)"/>
<path d="M66.5094 283.914C51.2617 324.534 42.8816 368.526 42.8816 414.48C42.8816 619.727 209.319 786.112 414.631 786.112C587.875 786.112 733.423 667.642 774.69 507.326L816.202 518.197C770.132 696.943 607.823 829 414.652 829C185.65 829 0 643.409 0 414.48C0 363.234 9.32031 314.155 26.3462 268.855L66.5094 283.914Z" fill="#E0E0E0"/>
<path d="M805.43 275.68L765.042 290.146C714.251 147.116 578.35 44.4005 418.208 42.8885V0C596.95 1.51203 748.691 116.079 805.43 275.68Z" fill="#C7C7C7"/>
<defs>
<radialGradient id="paint0_radial_11_2959" cx="0" cy="0" r="1" gradientUnits="userSpaceOnUse" gradientTransform="translate(414.631 417.994) rotate(180) scale(162.635 162.584)">
<stop stop-color="white" stop-opacity="0"/>
<stop offset="0.38" stop-color="white" stop-opacity="0"/>
<stop offset="0.47" stop-color="#FDFDFD" stop-opacity="0.01"/>
<stop offset="0.56" stop-color="#F9F9F9" stop-opacity="0.01"/>
<stop offset="0.65" stop-color="#F2F2F2" stop-opacity="0.0361"/>
<stop offset="0.74" stop-color="#E8E8E8" stop-opacity="0.1156"/>
<stop offset="0.83" stop-color="#DCDCDC" stop-opacity="0.2809"/>
<stop offset="0.92" stop-color="#CCCCCC" stop-opacity="0.5776"/>
<stop offset="1" stop-color="#BDBDBD"/>
</radialGradient>
<radialGradient id="paint1_radial_11_2959" cx="0" cy="0" r="1" gradientUnits="userSpaceOnUse" gradientTransform="translate(1774.87 417.994) rotate(180) scale(62.1559 62.1362)">
<stop stop-color="white" stop-opacity="0"/>
<stop offset="0.38" stop-color="white" stop-opacity="0"/>
<stop offset="0.47" stop-color="#FDFDFD" stop-opacity="0.01"/>
<stop offset="0.56" stop-color="#F9F9F9" stop-opacity="0.01"/>
<stop offset="0.65" stop-color="#F2F2F2" stop-opacity="0.0361"/>
<stop offset="0.74" stop-color="#E8E8E8" stop-opacity="0.1156"/>
<stop offset="0.83" stop-color="#DCDCDC" stop-opacity="0.2809"/>
<stop offset="0.92" stop-color="#CCCCCC" stop-opacity="0.5776"/>
<stop offset="1" stop-color="#BDBDBD"/>
</radialGradient>
<linearGradient id="paint2_linear_11_2959" x1="859.309" y1="385.097" x2="699.862" y2="385.097" gradientUnits="userSpaceOnUse">
<stop stop-color="#C7C7C7" stop-opacity="0.88"/>
<stop offset="0.27" stop-color="#CACACA" stop-opacity="0.81"/>
<stop offset="0.68" stop-color="#D5D5D5" stop-opacity="0.9025"/>
<stop offset="1" stop-color="#E0E0E0"/>
</linearGradient>
<linearGradient id="paint3_linear_11_2959" x1="808.987" y1="385.097" x2="750.183" y2="385.097" gradientUnits="userSpaceOnUse">
<stop stop-color="#C7C7C7" stop-opacity="0.88"/>
<stop offset="0.27" stop-color="#CACACA" stop-opacity="0.81"/>
<stop offset="0.68" stop-color="#D5D5D5" stop-opacity="0.9025"/>
<stop offset="1" stop-color="#E0E0E0"/>
</linearGradient>
</defs>
</svg>
